<svg width="72" height="73" viewBox="0 0 72 73" fill="none" xmlns="http://www.w3.org/2000/svg">
<path fill-rule="evenodd" clip-rule="evenodd" d="M69 36.5C69 54.5873 54.3373 69.25 36.25 69.25C18.1627 69.25 3.5 54.5873 3.5 36.5C3.5 18.4127 18.1627 3.75 36.25 3.75C54.3373 3.75 69 18.4127 69 36.5ZM72 36.5C72 56.2442 55.9942 72.25 36.25 72.25C16.5058 72.25 0.499995 56.2442 0.499997 36.5C0.499999 16.7558 16.5058 0.750001 36.25 0.750003C55.9942 0.750005 72 16.7558 72 36.5Z" fill="#1AC073"/>
<path d="M48.0406 33.294C49.4052 34.4892 49.4052 36.6125 48.0406 37.8076L34.4034 49.7517C32.4639 51.4503 29.4268 50.0731 29.4268 47.4949L29.4268 23.6067C29.4268 21.0286 32.4639 19.6513 34.4034 21.3499L48.0406 33.294Z" fill="#1AC073"/>
</svg>
